<?xml version="1.0" standalone="no"?>
<!DOCTYPE svg PUBLIC "-//W3C//DTD SVG 20010904//EN"
 "http://www.w3.org/TR/2001/REC-SVG-20010904/DTD/svg10.dtd">
<svg version="1.0" xmlns="http://www.w3.org/2000/svg"
 width="742.000000pt" height="742.000000pt" viewBox="0 0 742.000000 742.000000"
 preserveAspectRatio="xMidYMid meet">
<metadata>
Created by potrace 1.14, written by Peter Selinger 2001-2017
</metadata>
<g transform="translate(0.000000,742.000000) scale(0.100000,-0.100000)"
fill="#000000" stroke="none">
<path d="M513 5543 c2 -1033 7 -1896 10 -1918 3 -22 8 -78 12 -125 7 -97 13
-161 20 -205 2 -16 7 -52 10 -80 23 -185 134 -625 194 -770 5 -11 21 -54 36
-95 15 -41 43 -108 61 -148 19 -41 34 -76 34 -79 0 -14 147 -295 201 -385 117
-194 167 -266 293 -418 332 -400 731 -708 1231 -950 99 -48 212 -100 250 -115
39 -15 79 -31 90 -36 117 -48 282 -102 514 -169 249 -71 252 -71 601 36 517
160 961 379 1349 667 53 39 101 75 107 81 6 6 37 33 70 61 103 86 368 356 446
455 295 373 505 767 648 1219 37 118 92 320 104 385 2 11 13 66 24 121 17 86
31 169 47 290 2 17 7 61 10 99 4 38 9 92 12 120 2 28 7 903 9 1944 l5 1892
-3196 0 -3196 0 4 -1877z"/>
</g>
</svg>
